<svg xmlns="http://www.w3.org/2000/svg" xml:space="preserve" viewBox="0 0 48 48" id="Book">
  <path d="M23 48H7c-2.757 0-5-2.243-5-5V5a1 1 0 1 1 2 0v38c0 1.654 1.346 3 3 3h16a1 1 0 1 1 0 2z" fill="#ff0123" class="color000000 svgShape"></path>
  <path d="M41 22.999a1 1 0 0 1-1-1V10H7c-2.757 0-5-2.243-5-5s2.243-5 5-5h34a1 1 0 1 1 0 2H7C5.346 2 4 3.346 4 5s1.346 3 3 3h35v13.999a1 1 0 0 1-1 1zM34 48c-6.617 0-12-5.383-12-12s5.383-12 12-12 12 5.383 12 12-5.383 12-12 12zm0-22c-5.514 0-10 4.486-10 10s4.486 10 10 10 10-4.486 10-10-4.486-10-10-10z" fill="#ff0123" class="color000000 svgShape"></path>
  <path d="M34 42a1 1 0 0 1-1-1V31a1 1 0 1 1 2 0v10a1 1 0 0 1-1 1z" fill="#ff0123" class="color000000 svgShape"></path>
  <path d="m34 42.414-4.707-4.707a.999.999 0 1 1 1.414-1.414L34 39.586l3.293-3.293a.999.999 0 1 1 1.414 1.414L34 42.414zM7 4h33v2H7z" fill="#ff0123" class="color000000 svgShape"></path>
</svg>